<svg width="38" height="42" viewBox="0 0 38 42" fill="none" xmlns="http://www.w3.org/2000/svg">
<path d="M17.0931 2.02957C17.6821 0.167008 20.3179 0.167006 20.9069 2.02957L24.6471 13.8558C24.8332 14.4442 25.2805 14.9138 25.8592 15.1282L35.9378 18.8621C37.6781 19.5068 37.6781 21.9682 35.9378 22.613L25.8845 26.3375C25.2915 26.5572 24.8373 27.0445 24.6598 27.6514L20.9196 40.4378C20.3585 42.3558 17.6415 42.3558 17.0804 40.4378L13.3402 27.6514C13.1627 27.0445 12.7085 26.5572 12.1155 26.3375L2.06216 22.613C0.321903 21.9682 0.321905 19.5068 2.06216 18.8621L12.1408 15.1282C12.7195 14.9138 13.1668 14.4442 13.3529 13.8558L17.0931 2.02957Z" fill="#CC0025"/>
</svg>
