<svg width="315" height="316" viewBox="0 0 315 316" fill="none" xmlns="http://www.w3.org/2000/svg">
<path d="M169.56 65.957C176.121 58.6796 188.166 61.9075 190.209 71.4905L199.711 116.056C200.511 119.808 203.056 122.951 206.559 124.514L248.172 143.075C257.12 147.066 257.773 159.518 249.292 164.423L209.845 187.234C206.525 189.154 204.322 192.545 203.919 196.36L199.127 241.677C198.097 251.421 186.455 255.889 179.17 249.337L145.291 218.869C142.439 216.303 138.532 215.256 134.779 216.052L90.207 225.497C80.6222 227.528 72.7742 217.837 76.7532 208.883L95.2595 167.241C96.8172 163.736 96.6055 159.698 94.6899 156.375L71.9321 116.894C67.0391 108.406 73.8302 97.9484 83.5745 98.9663L128.892 103.701C132.707 104.099 136.483 102.65 139.051 99.8006L169.56 65.957Z" fill="#B80022"/>
<path d="M167.564 28.0923C166.52 27.9733 165.557 27.6673 164.676 27.1743C163.806 26.6718 163.061 26.0362 162.44 25.2676C161.829 24.5002 161.377 23.6364 161.083 22.6761C160.8 21.717 160.718 20.7154 160.837 19.6713C160.956 18.6272 161.261 17.6698 161.753 16.7991C162.255 15.9296 162.89 15.1896 163.658 14.5793C164.436 13.9701 165.305 13.524 166.264 13.2408C167.235 12.948 168.242 12.8611 169.286 12.9801C170.32 13.0979 171.266 13.4021 172.126 13.8926C172.987 14.3724 173.724 14.9852 174.337 15.7311L173.551 17.8984C173.146 17.0455 172.551 16.3344 171.766 15.7651C170.992 15.1863 170.099 14.8392 169.088 14.7239C168.022 14.6024 167.029 14.7563 166.107 15.1856C165.198 15.6053 164.44 16.2277 163.834 17.0526C163.229 17.8668 162.865 18.8121 162.742 19.8885C162.621 20.9541 162.763 21.957 163.168 22.8973C163.573 23.8376 164.171 24.6199 164.961 25.2442C165.763 25.859 166.697 26.2272 167.763 26.3486C168.785 26.4652 169.739 26.3285 170.623 25.9386C171.507 25.5487 172.241 24.9891 172.826 24.2598L173.105 26.5486C172.341 27.1266 171.485 27.5579 170.537 27.8423C169.588 28.1268 168.597 28.2101 167.564 28.0923Z" fill="#B80022"/>
<path d="M190.313 31.2968L195.024 17.4511L198.5 18.6341C199.372 18.9307 200.062 19.3598 200.569 19.9214C201.076 20.483 201.401 21.1085 201.544 21.798C201.7 22.4808 201.664 23.1606 201.433 23.8375C201.175 24.5964 200.728 25.2052 200.091 25.6637C199.455 26.1223 198.713 26.3677 197.867 26.4002L200.236 34.6731L198.19 33.9769L195.957 26.1108L194.234 25.5245L192.067 31.8935L190.313 31.2968ZM194.736 24.0476L196.459 24.6339C197.054 24.8363 197.573 24.8926 198.015 24.8029C198.472 24.7064 198.844 24.5186 199.134 24.2394C199.437 23.9535 199.65 23.6311 199.772 23.2721C199.992 22.626 199.936 22.0176 199.603 21.4468C199.281 20.8795 198.736 20.465 197.967 20.2033L196.244 19.617L194.736 24.0476Z" fill="#B80022"/>
<path d="M214.503 40.341L221.661 27.5877L227.952 31.1197L227.141 32.5651L222.465 29.9399L220.938 32.6606L224.622 34.729L223.811 36.1743L220.127 34.106L216.929 39.8025L221.605 42.4277L220.794 43.8731L214.503 40.341Z" fill="#B80022"/>
<path d="M231.802 50.2535L246.136 42.4291L246.161 42.4496L241.436 58.0833L239.91 56.8433L241.309 52.3896L237.337 49.1613L233.252 51.4321L231.802 50.2535ZM238.79 48.3526L241.804 50.802L242.732 47.8294C242.855 47.4548 242.979 47.0877 243.104 46.7282C243.228 46.3688 243.397 45.9547 243.611 45.4859C243.195 45.7907 242.829 46.0443 242.511 46.2466C242.2 46.4405 241.866 46.6367 241.509 46.8354L238.79 48.3526Z" fill="#B80022"/>
<path d="M259.736 56.9187L260.992 55.8365L267.293 63.1481L266.038 64.2303L263.492 61.2761L253.67 69.7431L252.461 68.3399L262.282 59.8729L259.736 56.9187Z" fill="#B80022"/>
<path d="M265.29 84.3641L277.626 76.5092L278.621 78.072L266.284 85.9268L265.29 84.3641Z" fill="#B80022"/>
<path d="M274.337 100.769L285.8 89.2968L286.585 91.0816L279.911 97.783C279.697 97.9956 279.489 98.194 279.286 98.378C279.097 98.5676 278.866 98.7698 278.594 98.9844C278.936 98.9284 279.239 98.8899 279.501 98.8689C279.779 98.8533 280.068 98.8384 280.37 98.8241L289.812 98.4143L290.551 100.095L274.35 100.799L274.337 100.769Z" fill="#B80022"/>
<path d="M282.582 120.07L296.808 116.677L298.482 123.695L296.869 124.08L295.626 118.863L292.591 119.587L293.571 123.697L291.958 124.081L290.979 119.972L284.624 121.487L285.868 126.703L284.256 127.088L282.582 120.07Z" fill="#B80022"/>
<path d="M292.473 166.927C292.538 166.237 292.842 165.667 293.385 165.218C293.928 164.768 294.544 164.576 295.235 164.641C295.936 164.707 296.506 165.011 296.944 165.553C297.394 166.095 297.586 166.712 297.521 167.402C297.455 168.103 297.151 168.673 296.61 169.112C296.077 169.562 295.461 169.755 294.76 169.689C294.07 169.624 293.5 169.32 293.05 168.777C292.6 168.245 292.407 167.628 292.473 166.927Z" fill="#B80022"/>
<path d="M279.655 204.385L293.01 210.346L290.07 216.935L288.556 216.259L290.741 211.362L287.892 210.091L285.906 214.543L284.392 213.867L286.379 209.415L278.9 206.077L279.655 204.385Z" fill="#B80022"/>
<path d="M268.103 227.007C268.625 226.247 269.253 225.687 269.988 225.324C270.732 224.967 271.515 224.822 272.337 224.887C273.163 224.968 273.964 225.275 274.741 225.808L283.006 231.483L281.958 233.011L273.746 227.372C272.951 226.826 272.156 226.616 271.361 226.74C270.566 226.864 269.93 227.275 269.451 227.972C268.979 228.659 268.824 229.393 268.984 230.174C269.148 230.969 269.613 231.631 270.382 232.158L278.647 237.834L277.635 239.307L269.423 233.669C268.638 233.129 268.057 232.481 267.683 231.725C267.312 230.983 267.159 230.202 267.224 229.379C267.283 228.566 267.576 227.775 268.103 227.007Z" fill="#B80022"/>
<path d="M255.178 244.737L265.55 255.048L264.244 256.362L255.048 247.22L251.474 250.816L250.298 249.647L255.178 244.737Z" fill="#B80022"/>
<path d="M240.248 259.084L248.87 270.898L247.374 271.99L239.729 261.515L235.634 264.505L234.657 263.166L240.248 259.084Z" fill="#B80022"/>
<path d="M220.327 272.193C221.1 271.801 221.879 271.601 222.664 271.593C223.439 271.589 224.123 271.717 224.715 271.975L225.249 274.218C224.705 273.814 224.052 273.531 223.29 273.37C222.529 273.209 221.771 273.32 221.018 273.701C220.331 274.048 219.876 274.552 219.651 275.212C219.417 275.877 219.461 276.529 219.784 277.167C220.019 277.63 220.323 277.956 220.697 278.143C221.071 278.33 221.442 278.44 221.811 278.472C222.179 278.504 222.465 278.517 222.669 278.511L224.674 278.516C224.994 278.524 225.404 278.554 225.903 278.605C226.392 278.661 226.885 278.83 227.38 279.114C227.876 279.397 228.295 279.877 228.637 280.554C228.97 281.211 229.116 281.872 229.076 282.536C229.026 283.204 228.803 283.821 228.409 284.385C228.004 284.954 227.45 285.417 226.744 285.774C226.048 286.126 225.371 286.311 224.712 286.329C224.058 286.356 223.515 286.315 223.083 286.206L222.549 283.963C222.997 284.246 223.547 284.447 224.202 284.565C224.857 284.683 225.484 284.59 226.083 284.287C226.663 283.994 227.039 283.585 227.211 283.061C227.387 282.546 227.349 282.038 227.094 281.535C226.899 281.148 226.65 280.873 226.349 280.71C226.038 280.552 225.735 280.456 225.439 280.424C225.134 280.396 224.889 280.381 224.705 280.377L222.67 280.387C222.428 280.388 222.118 280.375 221.74 280.347C221.352 280.325 220.94 280.242 220.503 280.099C220.071 279.966 219.654 279.74 219.25 279.422C218.851 279.114 218.505 278.67 218.212 278.09C217.835 277.346 217.679 276.593 217.743 275.832C217.798 275.076 218.046 274.379 218.489 273.743C218.931 273.106 219.544 272.589 220.327 272.193Z" fill="#B80022"/>
<path d="M208.947 292.136L209.451 293.715L200.256 296.651L199.752 295.072L203.467 293.886L199.524 281.532L201.289 280.969L205.232 293.322L208.947 292.136Z" fill="#B80022"/>
<path d="M186.29 285.751L182.165 301.553L182.132 301.557L173.985 287.403L175.934 287.141L178.218 291.212L183.292 290.531L184.438 285.999L186.29 285.751ZM182.885 292.143L179.036 292.66L180.564 295.373C180.753 295.72 180.935 296.061 181.112 296.398C181.288 296.735 181.474 297.142 181.669 297.619C181.732 297.108 181.798 296.667 181.869 296.297C181.941 295.937 182.027 295.56 182.126 295.164L182.885 292.143Z" fill="#B80022"/>
<path d="M151.962 288.116C153.01 288.198 153.983 288.47 154.881 288.932C155.768 289.404 156.535 290.013 157.182 290.76C157.819 291.505 158.301 292.353 158.628 293.302C158.945 294.251 159.062 295.249 158.979 296.297C158.897 297.344 158.625 298.312 158.164 299.199C157.692 300.086 157.083 300.847 156.338 301.484C155.581 302.12 154.729 302.596 153.78 302.913C152.82 303.239 151.816 303.361 150.768 303.279C149.732 303.197 148.775 302.926 147.898 302.466C147.021 302.016 146.263 301.43 145.625 300.706L146.335 298.512C146.769 299.35 147.389 300.04 148.193 300.582C148.987 301.133 149.891 301.449 150.906 301.529C151.975 301.613 152.963 301.425 153.869 300.964C154.763 300.512 155.498 299.864 156.076 299.018C156.652 298.184 156.983 297.226 157.068 296.146C157.152 295.077 156.975 294.08 156.537 293.154C156.099 292.228 155.475 291.467 154.663 290.871C153.84 290.285 152.894 289.949 151.825 289.865C150.799 289.784 149.851 289.954 148.981 290.375C148.111 290.795 147.397 291.38 146.838 292.129L146.479 289.852C147.222 289.247 148.063 288.786 149.001 288.469C149.938 288.152 150.926 288.034 151.962 288.116Z" fill="#B80022"/>
<path d="M121.239 283.337L124.596 293.769L118.187 297.692L116.102 297.064L122.475 293.146L119.076 282.686L121.239 283.337ZM129.158 285.724L124.939 299.727L123.165 299.193L127.385 285.19L129.158 285.724Z" fill="#B80022"/>
<path d="M80.0022 268.887C80.5587 269.301 80.8883 269.856 80.9911 270.554C81.0939 271.251 80.9385 271.878 80.525 272.434C80.1051 273 79.5497 273.329 78.859 273.423C78.1618 273.526 77.535 273.371 76.9785 272.957C76.4133 272.537 76.0837 271.982 75.9896 271.291C75.8804 270.602 76.0357 269.975 76.4557 269.41C76.8692 268.854 77.4245 268.524 78.1217 268.421C78.8102 268.312 79.437 268.467 80.0022 268.887Z" fill="#B80022"/>
<path d="M53.9646 238.293L41.631 246.153L39.0552 242.11C38.345 240.995 37.9107 239.91 37.7523 238.855C37.588 237.791 37.6356 236.797 37.8951 235.874C38.1547 234.951 38.5654 234.124 39.1275 233.393C39.6804 232.668 40.3178 232.076 41.0395 231.616C41.7613 231.156 42.572 230.825 43.4717 230.625C44.3622 230.43 45.2807 230.409 46.2271 230.564C47.1735 230.719 48.0943 231.096 48.9895 231.694C49.8788 232.284 50.6786 233.136 51.3887 234.25L53.9646 238.293ZM51.5714 237.622L50.0957 235.306C49.4903 234.355 48.8348 233.649 48.1291 233.187C47.4144 232.73 46.6914 232.452 45.9602 232.353C45.2198 232.26 44.5157 232.304 43.8478 232.485C43.1741 232.658 42.5815 232.907 42.0698 233.233C41.5582 233.559 41.082 233.991 40.6411 234.529C40.1944 235.057 39.8616 235.674 39.6427 236.379C39.4146 237.089 39.361 237.862 39.482 238.697C39.5938 239.538 39.9524 240.434 40.5578 241.384L42.0334 243.7L51.5714 237.622Z" fill="#B80022"/>
<path d="M38.2687 211.566L24.5987 216.764L22.0347 210.02L23.584 209.431L25.4896 214.443L28.4059 213.335L26.9045 209.385L28.4538 208.796L29.9552 212.745L36.0611 210.424L34.1555 205.411L35.7048 204.822L38.2687 211.566Z" fill="#B80022"/>
<path d="M30.6606 186.964L16.8677 195.493L16.5136 193.576L24.549 188.588C24.8063 188.431 25.055 188.286 25.2949 188.153C25.5222 188.012 25.7931 187.868 26.1076 187.722C25.7617 187.698 25.4583 187.666 25.1975 187.626C24.9241 187.577 24.6391 187.525 24.3425 187.47L15.0588 185.698L14.7254 183.892L30.6547 186.932L30.6606 186.964Z" fill="#B80022"/>
<path d="M27.0703 166.251L12.4455 166.31L12.4164 159.095L14.0739 159.088L14.0955 164.451L17.2155 164.438L17.1985 160.213L18.856 160.207L18.873 164.432L25.4054 164.405L25.3838 159.043L27.0413 159.036L27.0703 166.251Z" fill="#B80022"/>
<path d="M27.5594 144.717L13.093 142.569L13.3651 140.736L26.1919 142.641L26.9364 137.626L28.5759 137.869L27.5594 144.717Z" fill="#B80022"/>
<path d="M32.7675 119.972C32.4076 120.96 31.885 121.824 31.1995 122.566C30.5076 123.294 29.7154 123.87 28.8228 124.294C27.934 124.708 26.9884 124.945 25.986 125.007C24.9873 125.058 23.9943 124.903 23.007 124.543C22.0198 124.183 21.1604 123.662 20.4288 122.981C19.7009 122.289 19.13 121.498 18.716 120.609C18.3058 119.71 18.0751 118.761 18.024 117.763C17.9665 116.75 18.1177 115.75 18.4775 114.763C18.8411 113.765 19.3688 112.903 20.0608 112.175C20.7425 111.443 21.5278 110.87 22.4166 110.456C23.3092 110.032 24.2548 109.795 25.2535 109.744C26.2559 109.683 27.2507 109.832 28.238 110.192C29.2252 110.552 30.0828 111.078 30.8107 111.77C31.5423 112.452 32.1132 113.242 32.5234 114.141C32.9374 115.03 33.175 115.976 33.2362 116.978C33.2873 117.977 33.1311 118.975 32.7675 119.972ZM31.1187 119.371C31.4859 118.364 31.5737 117.364 31.3819 116.371C31.18 115.375 30.7471 114.491 30.0831 113.718C29.4229 112.936 28.589 112.361 27.5813 111.993C26.5635 111.622 25.5552 111.526 24.5564 111.704C23.5512 111.867 22.6559 112.268 21.8706 112.904C21.075 113.536 20.4936 114.356 20.1264 115.364C19.7591 116.371 19.6764 117.373 19.8783 118.369C20.0738 119.352 20.5017 120.234 21.1619 121.017C21.812 121.796 22.6459 122.371 23.6637 122.742C24.6713 123.109 25.6796 123.206 26.6886 123.032C27.6975 122.857 28.5979 122.459 29.3897 121.837C30.1751 121.201 30.7514 120.379 31.1187 119.371Z" fill="#B80022"/>
<path d="M43.0863 94.5937L30.816 86.6357L32.7875 83.5952C33.3121 82.7862 33.8768 82.184 34.4817 81.7887C35.0926 81.3843 35.7099 81.1391 36.3338 81.0531C36.9486 80.9611 37.5379 80.9882 38.1016 81.1343C38.6713 81.2714 39.1788 81.4843 39.6241 81.7731C40.0604 82.0561 40.4602 82.4251 40.8236 82.8803C41.1869 83.3355 41.4566 83.8654 41.6325 84.4702C41.8085 85.075 41.8365 85.7388 41.7164 86.4615C41.5964 87.1842 41.2741 87.9501 40.7496 88.759L39.7859 90.2452L44.0942 93.0393L43.0863 94.5937ZM38.3953 89.3433L39.3059 87.9389C39.7833 87.2027 40.0333 86.5384 40.0558 85.9461C40.0692 85.348 39.9395 84.8312 39.6665 84.396C39.3845 83.9548 39.0344 83.5986 38.6163 83.3275C38.2164 83.0681 37.7575 82.8996 37.2397 82.8221C36.7278 82.7354 36.2015 82.8202 35.6609 83.0765C35.1262 83.3236 34.6143 83.8244 34.1251 84.5789L33.2145 85.9832L38.3953 89.3433Z" fill="#B80022"/>
<path d="M56.7812 74.6775L46.0857 64.7027L51.0061 59.4257L52.2182 60.5562L48.5612 64.4783L50.8429 66.6062L53.7242 63.5161L54.9364 64.6466L52.0551 67.7367L56.8324 72.1921L60.4894 68.2701L61.7015 69.4006L56.7812 74.6775Z" fill="#B80022"/>
<path d="M71.9892 58.9526L63.2725 47.2091L66.2212 45.0199C66.9606 44.471 67.7053 44.1475 68.4554 44.0493C69.2055 43.9512 69.9049 44.0391 70.5535 44.3131C71.2044 44.572 71.7429 44.9885 72.1691 45.5626C72.6469 46.2063 72.8936 46.9204 72.9092 47.7049C72.9248 48.4894 72.7056 49.2391 72.2514 49.9541L80.4047 52.7047L78.6694 53.9931L70.9282 51.3614L69.4669 52.4463L73.4766 57.8483L71.9892 58.9526ZM68.5371 51.1937L69.9984 50.1088C70.5029 49.7342 70.844 49.3394 71.0215 48.9242C71.2013 48.4939 71.2586 48.0803 71.1934 47.6835C71.1304 47.2715 70.9859 46.9132 70.7599 46.6088C70.3532 46.0608 69.8206 45.7613 69.1622 45.7104C68.5125 45.653 67.8615 45.8665 67.2091 46.3508L65.7478 47.4357L68.5371 51.1937Z" fill="#B80022"/>
<path d="M114.781 29.5558C114.117 29.7555 113.475 29.6885 112.854 29.3549C112.234 29.0213 111.823 28.5225 111.624 27.8585C111.421 27.1842 111.488 26.5418 111.825 25.9314C112.158 25.3106 112.657 24.9004 113.321 24.7006C113.995 24.4978 114.638 24.5647 115.248 24.9015C115.866 25.2247 116.276 25.7235 116.479 26.3979C116.678 27.0618 116.611 27.7042 116.278 28.325C115.955 28.9426 115.456 29.3529 114.781 29.5558Z" fill="#B80022"/>
</svg>
