<svg width="46" height="46" viewBox="0 0 46 46" fill="none" xmlns="http://www.w3.org/2000/svg">
<path d="M22.0246 1.31824C22.2594 0.278686 23.7406 0.278686 23.9754 1.31824L26.4885 12.4436C26.6406 13.1173 27.4138 13.4375 27.9978 13.0688L37.6416 6.97895C38.5427 6.40992 39.5901 7.45729 39.021 8.35841L32.9312 18.0022C32.5625 18.5862 32.8827 19.3594 33.5564 19.5115L44.6818 22.0246C45.7213 22.2594 45.7213 23.7406 44.6818 23.9754L33.5564 26.4885C32.8827 26.6406 32.5625 27.4138 32.9312 27.9978L39.021 37.6416C39.5901 38.5427 38.5427 39.5901 37.6416 39.021L27.9978 32.9312C27.4138 32.5625 26.6406 32.8827 26.4885 33.5564L23.9754 44.6818C23.7406 45.7213 22.2594 45.7213 22.0246 44.6818L19.5115 33.5564C19.3594 32.8827 18.5862 32.5625 18.0022 32.9312L8.35841 39.021C7.45729 39.5901 6.40992 38.5427 6.97895 37.6416L13.0688 27.9978C13.4375 27.4138 13.1173 26.6406 12.4436 26.4885L1.31824 23.9754C0.278686 23.7406 0.278686 22.2594 1.31824 22.0246L12.4436 19.5115C13.1173 19.3594 13.4375 18.5862 13.0688 18.0022L6.97895 8.35841C6.40992 7.45729 7.45729 6.40992 8.35841 6.97895L18.0022 13.0688C18.5862 13.4375 19.3594 13.1173 19.5115 12.4436L22.0246 1.31824Z" fill="#CC0025"/>
</svg>
