<svg width="186" height="192" viewBox="0 0 186 192" fill="none" xmlns="http://www.w3.org/2000/svg">
<path d="M99.5602 4.95702C106.121 -2.32043 118.166 0.907513 120.209 10.4905L129.711 55.056C130.511 58.8077 133.056 61.951 136.559 63.5136L178.172 82.0749C187.12 86.066 187.773 98.5183 179.292 103.423L139.845 126.234C136.525 128.154 134.322 131.545 133.919 135.36L129.127 180.677C128.097 190.421 116.455 194.889 109.17 188.337L75.2913 157.869C72.4389 155.303 68.532 154.256 64.7793 155.052L20.207 164.497C10.6222 166.528 2.77419 156.837 6.75321 147.883L25.2595 106.241C26.8172 102.736 26.6055 98.6977 24.6899 95.3746L1.93215 55.8942C-2.96086 47.4058 3.83021 36.9484 13.5745 37.9663L58.8922 42.7005C62.7073 43.0991 66.483 41.6497 69.0514 38.8006L99.5602 4.95702Z" fill="#B80022"/>
</svg>
